<svg xmlns="http://www.w3.org/2000/svg" viewBox="0 0 64 64" width="64" height="64" aria-hidden="true">
  <rect width="64" height="64" rx="8" fill="#5d4037"/>
  <rect x="8" y="8" width="48" height="48" rx="4" fill="#efebe9"/>
  <g fill="#8d6e63">
    <rect x="10" y="10" width="6" height="6"/>
    <rect x="22" y="10" width="6" height="6"/>
    <rect x="34" y="10" width="6" height="6"/>
    <rect x="46" y="10" width="6" height="6"/>
    <rect x="16" y="16" width="6" height="6"/>
    <rect x="28" y="16" width="6" height="6"/>
    <rect x="40" y="16" width="6" height="6"/>
    <rect x="10" y="22" width="6" height="6"/>
    <rect x="22" y="22" width="6" height="6"/>
    <rect x="34" y="22" width="6" height="6"/>
    <rect x="46" y="22" width="6" height="6"/>
    <rect x="16" y="28" width="6" height="6"/>
    <rect x="28" y="28" width="6" height="6"/>
    <rect x="40" y="28" width="6" height="6"/>
    <rect x="10" y="34" width="6" height="6"/>
    <rect x="22" y="34" width="6" height="6"/>
    <rect x="34" y="34" width="6" height="6"/>
    <rect x="46" y="34" width="6" height="6"/>
    <rect x="16" y="40" width="6" height="6"/>
    <rect x="28" y="40" width="6" height="6"/>
    <rect x="40" y="40" width="6" height="6"/>
    <rect x="10" y="46" width="6" height="6"/>
    <rect x="22" y="46" width="6" height="6"/>
    <rect x="34" y="46" width="6" height="6"/>
    <rect x="46" y="46" width="6" height="6"/>
  </g>
  <text x="32" y="38" font-size="20" font-weight="bold" fill="#1b5e20" text-anchor="middle">T</text>
</svg>
